<svg width="115" height="32" viewBox="0 0 115 32" fill="none" xmlns="http://www.w3.org/2000/svg">
<path d="M16.4062 0C13.2417 -3.77363e-08 10.1483 0.938383 7.51713 2.69649C4.88594 4.45459 2.83518 6.95345 1.62418 9.87706C0.413176 12.8007 0.096322 16.0177 0.713685 19.1214C1.33105 22.2251 2.8549 25.0761 5.09254 27.3137C7.33018 29.5513 10.1811 31.0752 13.2848 31.6926C16.3885 32.3099 19.6056 31.9931 22.5292 30.7821C25.4528 29.5711 27.9517 27.5203 29.7098 24.8891C31.4679 22.2579 32.4062 19.1645 32.4062 16L24.4062 16C24.4062 17.5823 23.9371 19.129 23.058 20.4446C22.179 21.7602 20.9295 22.7855 19.4677 23.391C18.0059 23.9965 16.3974 24.155 14.8455 23.8463C13.2937 23.5376 11.8682 22.7757 10.7494 21.6569C9.63057 20.538 8.86865 19.1126 8.55997 17.5607C8.25129 16.0089 8.40971 14.4003 9.01521 12.9385C9.62072 11.4767 10.6461 10.2273 11.9617 9.34824C13.2773 8.46919 14.824 8 16.4062 8V0Z" fill="white"/>
<path d="M16.4062 0C14.3051 -2.5056e-08 12.2245 0.413852 10.2833 1.21793C8.3421 2.022 6.57828 3.20055 5.09254 4.68629C3.6068 6.17203 2.42825 7.93586 1.62418 9.87707C0.820102 11.8183 0.40625 13.8989 0.40625 16H8.40625C8.40625 14.9494 8.61318 13.9091 9.01521 12.9385C9.41725 11.9679 10.0065 11.086 10.7494 10.3431C11.4923 9.60028 12.3742 9.011 13.3448 8.60896C14.3154 8.20693 15.3557 8 16.4062 8V0Z" fill="#5CE1E6"/>
<circle cx="16.4062" cy="16" r="5" fill="#5CE1E6"/>
<path d="M21.4062 16C21.4062 15.3434 21.2769 14.6932 21.0256 14.0866C20.7744 13.48 20.4061 12.9288 19.9418 12.4645C19.4775 12.0002 18.9263 11.6319 18.3197 11.3806C17.713 11.1293 17.0629 11 16.4062 11C15.7496 11 15.0995 11.1293 14.4928 11.3806C13.8862 11.6319 13.335 12.0002 12.8707 12.4645C12.4064 12.9288 12.0381 13.48 11.7869 14.0866C11.5356 14.6932 11.4062 15.3434 11.4063 16L16.4062 16H21.4062Z" fill="white"/>
<path d="M48.3943 23H45.8743L40.1683 14.378V23H37.6483V10.418H40.1683L45.8743 19.058V10.418H48.3943V23ZM50.2366 17.978C50.2366 16.97 50.4346 16.076 50.8306 15.296C51.2386 14.516 51.7846 13.916 52.4686 13.496C53.1646 13.076 53.9386 12.866 54.7906 12.866C55.5346 12.866 56.1826 13.016 56.7346 13.316C57.2986 13.616 57.7486 13.994 58.0846 14.45V13.028H60.6226V23H58.0846V21.542C57.7606 22.01 57.3106 22.4 56.7346 22.712C56.1706 23.012 55.5166 23.162 54.7726 23.162C53.9326 23.162 53.1646 22.946 52.4686 22.514C51.7846 22.082 51.2386 21.476 50.8306 20.696C50.4346 19.904 50.2366 18.998 50.2366 17.978ZM58.0846 18.014C58.0846 17.402 57.9646 16.88 57.7246 16.448C57.4846 16.004 57.1606 15.668 56.7526 15.44C56.3446 15.2 55.9066 15.08 55.4386 15.08C54.9706 15.08 54.5386 15.194 54.1426 15.422C53.7466 15.65 53.4226 15.986 53.1706 16.43C52.9306 16.862 52.8106 17.378 52.8106 17.978C52.8106 18.578 52.9306 19.106 53.1706 19.562C53.4226 20.006 53.7466 20.348 54.1426 20.588C54.5506 20.828 54.9826 20.948 55.4386 20.948C55.9066 20.948 56.3446 20.834 56.7526 20.606C57.1606 20.366 57.4846 20.03 57.7246 19.598C57.9646 19.154 58.0846 18.626 58.0846 18.014ZM67.2418 20.678L69.7618 13.028H72.4438L68.7538 23H65.6938L62.0218 13.028H64.7218L67.2418 20.678Z" fill="white"/>
<path d="M83.0212 14.324C83.0212 14.996 82.8592 15.626 82.5352 16.214C82.2232 16.802 81.7252 17.276 81.0412 17.636C80.3692 17.996 79.5172 18.176 78.4852 18.176H76.3792V23H73.8592V10.436H78.4852C79.4572 10.436 80.2852 10.604 80.9692 10.94C81.6532 11.276 82.1632 11.738 82.4992 12.326C82.8472 12.914 83.0212 13.58 83.0212 14.324ZM78.3772 16.142C79.0732 16.142 79.5892 15.986 79.9252 15.674C80.2612 15.35 80.4292 14.9 80.4292 14.324C80.4292 13.1 79.7452 12.488 78.3772 12.488H76.3792V16.142H78.3772ZM84.1624 17.978C84.1624 16.97 84.3604 16.076 84.7564 15.296C85.1644 14.516 85.7104 13.916 86.3944 13.496C87.0904 13.076 87.8644 12.866 88.7164 12.866C89.4604 12.866 90.1084 13.016 90.6604 13.316C91.2244 13.616 91.6744 13.994 92.0104 14.45V13.028H94.5484V23H92.0104V21.542C91.6864 22.01 91.2364 22.4 90.6604 22.712C90.0964 23.012 89.4424 23.162 88.6984 23.162C87.8584 23.162 87.0904 22.946 86.3944 22.514C85.7104 22.082 85.1644 21.476 84.7564 20.696C84.3604 19.904 84.1624 18.998 84.1624 17.978ZM92.0104 18.014C92.0104 17.402 91.8904 16.88 91.6504 16.448C91.4104 16.004 91.0864 15.668 90.6784 15.44C90.2704 15.2 89.8324 15.08 89.3644 15.08C88.8964 15.08 88.4644 15.194 88.0684 15.422C87.6724 15.65 87.3484 15.986 87.0964 16.43C86.8564 16.862 86.7364 17.378 86.7364 17.978C86.7364 18.578 86.8564 19.106 87.0964 19.562C87.3484 20.006 87.6724 20.348 88.0684 20.588C88.4764 20.828 88.9084 20.948 89.3644 20.948C89.8324 20.948 90.2704 20.834 90.6784 20.606C91.0864 20.366 91.4104 20.03 91.6504 19.598C91.8904 19.154 92.0104 18.626 92.0104 18.014ZM99.5296 14.576C99.8536 14.048 100.274 13.634 100.79 13.334C101.318 13.034 101.918 12.884 102.59 12.884V15.53H101.924C101.132 15.53 100.532 15.716 100.124 16.088C99.7276 16.46 99.5296 17.108 99.5296 18.032V23H97.0096V13.028H99.5296V14.576ZM110.191 23L106.807 18.752V23H104.287V9.68H106.807V17.258L110.155 13.028H113.431L109.039 18.032L113.467 23H110.191Z" fill="#3BBCEF"/>
</svg>
